<svg width="80" height="80" viewBox="0 0 80 80" fill="none" xmlns="http://www.w3.org/2000/svg">
<g clip-path="url(#clip0)">
<path d="M63.1 23.141L56.861 16.902C56.2865 16.3276 55.3555 16.3276 54.781 16.902L52.7011 18.982C52.1266 19.5564 52.1266 20.4875 52.7011 21.062L45.6542 28.1088C41.3729 26.2982 36.2424 27.1226 32.7525 30.6116L18.1955 45.1686C15.8987 47.4654 15.8987 51.1906 18.1955 53.4875L26.5145 61.8064C28.8114 64.1033 32.5365 64.1033 34.8334 61.8064L49.3913 47.2485C52.8803 43.7596 53.7047 38.6281 51.8941 34.3469L58.9409 27.3C59.5154 27.8745 60.4465 27.8745 61.0209 27.3L63.1009 25.22C63.6744 24.6465 63.6744 23.7154 63.1 23.141V23.141ZM32.9446 55.3763L24.6257 47.0574L35.8426 35.8404L44.1615 44.1594L32.9446 55.3763V55.3763Z" fill="black"/>
</g>
<circle cx="40" cy="40" r="39.5" stroke="black"/>
<defs>
<clipPath id="clip0">
<rect width="47.0588" height="47.0588" fill="white" transform="translate(16.4706 16.4706)"/>
</clipPath>
</defs>
</svg>
