<svg width="80" height="80" viewBox="0 0 80 80" fill="none" xmlns="http://www.w3.org/2000/svg">
<g clip-path="url(#clip0)">
<path d="M39.3764 30.9362L24.3135 43.3422V56.7319C24.3135 57.0786 24.4512 57.4111 24.6964 57.6563C24.9415 57.9014 25.274 58.0391 25.6207 58.0391L34.7759 58.0154C35.1215 58.0137 35.4523 57.8752 35.696 57.6303C35.9397 57.3853 36.0766 57.0538 36.0766 56.7082V48.8888C36.0766 48.5421 36.2143 48.2096 36.4594 47.9645C36.7046 47.7193 37.0371 47.5816 37.3837 47.5816H42.6125C42.9592 47.5816 43.2917 47.7193 43.5368 47.9645C43.782 48.2096 43.9197 48.5421 43.9197 48.8888V56.7025C43.9192 56.8745 43.9526 57.045 44.018 57.204C44.0835 57.3631 44.1797 57.5077 44.3011 57.6295C44.4225 57.7513 44.5668 57.848 44.7257 57.9139C44.8846 57.9799 45.0549 58.0138 45.2269 58.0138L54.3788 58.0391C54.7255 58.0391 55.058 57.9014 55.3031 57.6563C55.5483 57.4111 55.686 57.0786 55.686 56.7319V43.3332L40.6264 30.9362C40.4493 30.7935 40.2288 30.7156 40.0014 30.7156C39.774 30.7156 39.5534 30.7935 39.3764 30.9362V30.9362ZM63.1697 39.3684L56.3396 33.7385V22.4223C56.3396 22.1623 56.2363 21.9129 56.0525 21.729C55.8686 21.5452 55.6192 21.4419 55.3592 21.4419H50.7841C50.524 21.4419 50.2747 21.5452 50.0908 21.729C49.907 21.9129 49.8037 22.1623 49.8037 22.4223V28.3545L42.4891 22.3365C41.7872 21.7589 40.9064 21.443 39.9973 21.443C39.0882 21.443 38.2074 21.7589 37.5055 22.3365L16.8249 39.3684C16.7257 39.4504 16.6435 39.5512 16.5832 39.665C16.5229 39.7788 16.4857 39.9034 16.4735 40.0316C16.4614 40.1599 16.4746 40.2892 16.5125 40.4123C16.5504 40.5354 16.6121 40.6499 16.6942 40.7491L18.7776 43.2818C18.8594 43.3813 18.9602 43.4638 19.074 43.5244C19.1878 43.585 19.3124 43.6225 19.4407 43.6349C19.569 43.6473 19.6985 43.6342 19.8218 43.5965C19.9451 43.5587 20.0597 43.497 20.1591 43.4149L39.3764 27.5865C39.5534 27.4438 39.774 27.366 40.0014 27.366C40.2288 27.366 40.4493 27.4438 40.6264 27.5865L59.8445 43.4149C59.9437 43.4971 60.0582 43.5588 60.1813 43.5967C60.3044 43.6346 60.4337 43.6478 60.562 43.6357C60.6902 43.6235 60.8148 43.5862 60.9286 43.5259C61.0424 43.4656 61.1432 43.3835 61.2252 43.2842L63.3086 40.7515C63.3906 40.6517 63.4521 40.5367 63.4895 40.4131C63.5269 40.2894 63.5396 40.1596 63.5266 40.0311C63.5137 39.9025 63.4756 39.7778 63.4143 39.6641C63.353 39.5504 63.2699 39.4499 63.1697 39.3684V39.3684Z" fill="black"/>
</g>
<circle cx="40" cy="40" r="39.5" stroke="black"/>
<defs>
<clipPath id="clip0">
<rect width="47.0588" height="41.8301" fill="white" transform="translate(16.4706 18.8235)"/>
</clipPath>
</defs>
</svg>
