<svg width="80" height="80" viewBox="0 0 80 80" fill="none" xmlns="http://www.w3.org/2000/svg">
<g clip-path="url(#clip0)">
<path d="M32.4265 55.4622H34.2647V42.1848H32.4265C31.4112 42.1848 30.5882 41.3618 30.5882 40.3466V35.9559C30.5882 34.9406 31.4112 34.1176 32.4265 34.1176H42.7206C43.7359 34.1176 44.5588 34.9406 44.5588 35.9559V55.4622H46.3971C47.4123 55.4622 48.2353 56.2852 48.2353 57.3005V61.6912C48.2353 62.7064 47.4123 63.5294 46.3971 63.5294H32.4265C31.4112 63.5294 30.5882 62.7064 30.5882 61.6912V57.3005C30.5882 56.2852 31.4112 55.4622 32.4265 55.4622ZM39.4118 16.4706C35.7569 16.4706 32.7941 19.4334 32.7941 23.0882C32.7941 26.7431 35.7569 29.7059 39.4118 29.7059C43.0666 29.7059 46.0294 26.7431 46.0294 23.0882C46.0294 19.4334 43.0666 16.4706 39.4118 16.4706Z" fill="black"/>
</g>
<circle cx="40" cy="40" r="39.5" stroke="black"/>
<defs>
<clipPath id="clip0">
<rect width="17.6471" height="47.0588" fill="white" transform="translate(30.5882 16.4706)"/>
</clipPath>
</defs>
</svg>
